<svg width="212" height="131" viewBox="0 0 212 131" fill="none" xmlns="http://www.w3.org/2000/svg">
<path d="M9.67745 0.892421L129.981 56.9908C142.775 40.7037 165.524 34.7374 185.104 43.8675C207.932 54.5125 217.809 81.6482 207.163 104.477C196.518 127.305 169.383 137.182 146.554 126.537C126.975 117.406 116.923 96.1449 121.175 75.8746L46.6125 41.1055L35.2802 65.4077L20.5929 58.5588L31.9252 34.2566L25.6305 31.3214L19.5816 44.2933L4.89425 37.4445L10.9431 24.4726L0.871787 19.7762L9.67745 0.892421ZM140.855 99.7446C159.182 126.142 197.236 112.292 194.308 80.2893C193.991 76.8311 192.783 73.5121 190.803 70.6595C172.475 44.2618 134.422 58.1115 137.351 90.1143C137.668 93.5725 138.876 96.8915 140.856 99.7441L140.855 99.7446Z" fill="#545659"/>
</svg>
