<svg width="128" height="50" fill="none" xmlns="http://www.w3.org/2000/svg"><path d="M18.104 1.608C8.312 1.608 0 8.604 0 19.364 0 29.046 7.399 36.72 17.994 36.72c9.774 0 18.104-6.997 18.104-17.757 0-9.663-7.399-17.354-17.994-17.354Zm0 33.029c-6.376 0-10.943-6.522-10.943-15.51s4.33-15.419 10.851-15.419c6.522 0 10.943 6.522 10.943 15.51-.018 8.604-4.348 15.418-10.851 15.418Zm101.461-19.712v1.462l1.955.383c.676.146.877.676.438 1.754l-4.494 10.815c-.201.438-.438.438-.584 0l-4.184-10.797c-.438-1.114-.201-1.607.494-1.754l1.936-.383v-1.462H97.808v1.462l1.954.383c.676.147.932.676.494 1.754l-4.33 11.381c-.2.439-.438.439-.584 0l-4.385-11.38c-.383-1.115-.2-1.608.494-1.755l1.936-.383v-1.462H82.389v1.498l1.078.238c.731.146 1.17.53 1.462 1.224l7.435 18.286h3.361l7.435-18.286c.384-.968.822-1.37 1.608-1.37h.292c.64 0 1.115.237 1.517 1.169l7.782 18.98-2.083 4.97c-1.37 3.306-2.375 3.89-3.653 3.89-.53 0-1.115-.09-1.699-.09-1.517 0-2.43 1.077-2.43 2.228 0 1.315 1.078 2.247 2.777 2.247 2.429 0 4.823-1.955 6.814-6.613L124.68 18.45c.494-1.114 1.115-1.608 2.138-1.809l1.059-.2v-1.517h-8.312ZM51.37 34.29l-8.13 1.023c-2.666.348-3.507-.53-3.507-1.9 0-1.607 1.754-2.868 7.837-2.868h.092c4.42 0 9.627-2.667 9.627-8.458 0-1.845-.676-3.544-1.955-4.914a6.302 6.302 0 0 1-.584-3.014c0-4.275 2.923-6.705 5.937-6.705 1.26 0 1.662.201 1.662 1.078 0 .238-.054.439-.054.731 0 1.516 1.26 2.923 3.069 2.923 1.808 0 3.014-1.462 3.014-3.07 0-2.429-2.192-4.237-6.23-4.237-5.553 0-9.828 3.598-9.828 9.097 0 .439.055.786.055 1.114a11.783 11.783 0 0 0-4.53-.876c-4.385 0-9.628 2.667-9.628 8.458 0 2.667 1.516 5.151 4.129 6.613-3.891.53-6.12 2.63-6.12 5.882s2.63 5.7 7.545 5.115l7.106-.877c3.544-.438 4.713.822 4.713 2.668 0 3.215-3.014 5.79-7.837 5.79-3.836 0-5.261-1.37-5.261-3.306l.055-.968c0-1.17-.731-1.991-1.9-2.046-1.37 0-2.192.968-2.192 2.375 0 3.215 3.069 6.083 9.335 6.083 7.051 0 11.527-4.567 11.527-9.828.018-4.184-3.325-6.467-7.947-5.883Zm-3.653-18.34c2.283 0 4.128 2.575 4.128 6.52 0 3.399-1.553 6.322-3.982 6.322-2.43 0-4.184-2.576-4.184-6.522 0-3.343 1.553-6.32 4.038-6.32Z" fill="#fff"/><path d="M80.508 33.668V0L71.94 2.192v1.023l2.43.786c.383.146.53.438.53.822v28.7c0 .529-.439.93-1.078.93l-2.174.037-2.302-.036c-.64 0-1.078-.384-1.078-.932V14.103L59.7 16.295v1.023l2.43.786c.384.146.53.438.53.822v14.742c0 .439-.238.676-.585.731l-1.99.237v1.553H83.43v-1.553l-2.375-.237c-.31-.055-.548-.292-.548-.73Z" fill="#fff"/></svg>