<svg width="836" height="467" viewBox="0 0 836 467" fill="none" xmlns="http://www.w3.org/2000/svg">
<path d="M733.392 227.77L529.493 347.007L734.705 463.972L733.392 227.77Z" fill="black"/>
<path d="M282.937 29.5752L218.759 256.893L447.712 198.816L282.937 29.5752Z" fill="white"/>
<g clip-path="url(#clip0_0_1)">
<rect x="296" y="244" width="223" height="223" rx="111.5" fill="#EB3F43"/>
<path fill-rule="evenodd" clip-rule="evenodd" d="M155.347 439.192L845.243 1035.8L857.175 1022.01L167.279 425.394L155.347 439.192ZM179.211 411.597L869.107 1008.21L881.04 994.412L191.144 397.8L179.211 411.597ZM892.972 980.616L203.076 384.003L215.008 370.205L904.904 966.818L892.972 980.616ZM226.941 356.407L916.837 953.02L928.769 939.222L238.873 342.609L226.941 356.407ZM940.701 925.423L250.805 328.81L262.737 315.012L952.633 911.625L940.701 925.423ZM274.67 301.216L964.565 897.829L976.498 884.031L286.602 287.418L274.67 301.216ZM988.43 870.233L298.534 273.62L310.466 259.822L1000.36 856.435L988.43 870.233ZM322.399 246.025L1012.29 842.638L1024.23 828.84L334.331 232.227L322.399 246.025ZM1036.16 815.042L346.263 218.429L358.195 204.631L1048.09 801.244L1036.16 815.042ZM370.128 190.832L1060.02 787.445L1071.96 773.647L382.06 177.035L370.128 190.832ZM1083.89 759.849L393.992 163.236L405.924 149.438L1095.82 746.051L1083.89 759.849ZM417.857 135.642L1107.75 732.255L1119.69 718.457L429.789 121.844L417.857 135.642ZM1131.62 704.656L441.721 108.043L453.654 94.2454L1143.55 690.858L1131.62 704.656ZM465.586 80.4469L1155.48 677.06L1167.41 663.262L477.518 66.649L465.586 80.4469ZM1179.35 649.466L489.45 52.8525L501.383 39.0546L1191.28 635.668L1179.35 649.466ZM513.315 25.2542L1203.21 621.867L1215.14 608.069L525.247 11.4563L513.315 25.2542ZM1227.08 594.275L537.18 -2.33822L549.112 -16.1361L1239.01 580.477L1227.08 594.275ZM561.044 -29.9346L1250.94 566.678L1262.87 552.88L572.976 -43.7325L561.044 -29.9346ZM1274.8 539.082L584.908 -57.5309L596.841 -71.3288L1286.74 525.284L1274.8 539.082ZM608.773 -85.1253L1298.67 511.488L1310.6 497.69L620.705 -98.9233L608.773 -85.1253ZM1322.53 483.889L632.637 -112.724L644.57 -126.522L1334.47 470.091L1322.53 483.889ZM656.502 -140.32L1346.4 456.293L1358.33 442.495L668.434 -154.118L656.502 -140.32ZM1370.26 428.699L680.366 -167.914L692.299 -181.712L1382.19 414.901L1370.26 428.699ZM704.231 -195.509L1394.13 401.104L1406.06 387.306L716.163 -209.307L704.231 -195.509Z" fill="#FF5454"/>
</g>
<g clip-path="url(#clip1_0_1)">
<rect width="204.114" height="204.114" transform="translate(472.848 45.7852) rotate(9.30829)" fill="black"/>
<path fill-rule="evenodd" clip-rule="evenodd" d="M833.988 -674.988L5.32422 -125.388L16.3162 -108.815L844.98 -658.415L833.988 -674.988ZM855.973 -641.842L27.3084 -92.2416L38.3005 -75.6684L866.965 -625.269L855.973 -641.842ZM49.2912 -59.0951L877.955 -608.696L888.947 -592.122L60.2832 -42.5218L49.2912 -59.0951ZM899.939 -575.549L71.2754 -25.9485L82.2674 -9.37522L910.932 -558.976L899.939 -575.549ZM93.2609 7.1983L921.925 -542.402L932.917 -525.829L104.253 23.7716L93.2609 7.1983ZM943.905 -509.257L115.241 40.3438L126.233 56.9171L954.897 -492.683L943.905 -509.257ZM137.227 73.491L965.891 -476.11L976.883 -459.536L148.219 90.0643L137.227 73.491ZM987.875 -442.963L159.211 106.638L170.203 123.211L998.867 -426.39L987.875 -442.963ZM181.195 139.784L1009.86 -409.817L1020.85 -393.243L192.187 156.357L181.195 139.784ZM1031.84 -376.67L203.178 172.93L214.17 189.504L1042.83 -360.097L1031.84 -376.67ZM225.165 206.078L1053.83 -343.523L1064.82 -326.95L236.157 222.651L225.165 206.078ZM1075.81 -310.376L247.147 239.224L258.139 255.797L1086.8 -293.803L1075.81 -310.376ZM269.131 272.371L1097.8 -277.23L1108.79 -260.657L280.124 288.944L269.131 272.371ZM1119.78 -244.083L291.117 305.518L302.109 322.091L1130.77 -227.51L1119.78 -244.083ZM313.1 338.664L1141.76 -210.937L1152.76 -194.364L324.092 355.237L313.1 338.664ZM1163.75 -177.79L335.084 371.81L346.076 388.383L1174.74 -161.217L1163.75 -177.79ZM357.067 404.957L1185.73 -144.644L1196.72 -128.071L368.059 421.53L357.067 404.957ZM1207.72 -111.497L379.051 438.103L390.043 454.677L1218.71 -94.9241L1207.72 -111.497ZM401.035 471.25L1229.7 -78.3509L1240.69 -61.7776L412.027 487.823L401.035 471.25ZM1251.68 -45.2047L423.018 504.396L434.01 520.969L1262.67 -28.6314L1251.68 -45.2047ZM445.005 537.543L1273.67 -12.0573L1284.66 4.51596L455.997 554.117L445.005 537.543ZM1295.65 21.089L466.988 570.69L477.98 587.263L1306.64 37.6623L1295.65 21.089ZM488.972 603.836L1317.64 54.2355L1328.63 70.8088L499.964 620.409L488.972 603.836ZM1339.62 87.3821L510.956 636.983L521.948 653.556L1350.61 103.955L1339.62 87.3821Z" fill="#545659"/>
</g>
<g clip-path="url(#clip2_0_1)">
<rect width="204.114" height="204.114" transform="translate(84.8188 197.016) rotate(24.3)" fill="#EB3F43"/>
<path fill-rule="evenodd" clip-rule="evenodd" d="M-358.28 -274.381L119.444 757.278L140.077 747.724L-337.647 -283.936L-358.28 -274.381ZM-317.014 -293.49L160.71 738.17L181.343 728.615L-296.381 -303.044L-317.014 -293.49ZM201.976 719.063L-275.748 -312.596L-255.115 -322.151L222.609 709.509L201.976 719.063ZM-234.482 -331.708L243.243 699.952L263.876 690.398L-213.848 -341.262L-234.482 -331.708ZM284.509 680.844L-193.215 -350.816L-172.582 -360.371L305.143 671.289L284.509 680.844ZM-151.95 -369.923L325.774 661.737L346.407 652.183L-131.317 -379.477L-151.95 -369.923ZM367.042 642.626L-110.683 -389.034L-90.0495 -398.588L387.675 633.071L367.042 642.626ZM-69.4163 -408.142L408.308 623.518L428.941 613.963L-48.7831 -417.697L-69.4163 -408.142ZM449.574 604.408L-28.1503 -427.252L-7.51713 -436.806L470.207 594.854L449.574 604.408ZM13.1158 -446.358L490.84 585.302L511.473 575.747L33.749 -455.912L13.1158 -446.358ZM532.108 566.19L54.3833 -465.47L75.0165 -475.025L552.741 556.635L532.108 566.19ZM95.6497 -484.58L573.374 547.08L594.007 537.526L116.283 -494.134L95.6497 -484.58ZM614.64 527.972L136.916 -503.688L157.549 -513.242L635.274 518.417L614.64 527.972ZM178.183 -522.798L655.907 508.861L676.54 499.307L198.816 -532.353L178.183 -522.798ZM697.173 489.753L219.449 -541.907L240.082 -551.461L717.806 480.199L697.173 489.753ZM260.715 -561.014L738.439 470.646L759.072 461.091L281.348 -570.569L260.715 -561.014ZM779.705 451.537L301.981 -580.122L322.614 -589.677L800.339 441.983L779.705 451.537ZM343.247 -599.232L820.972 432.428L841.605 422.874L363.881 -608.786L343.247 -599.232ZM862.238 413.321L384.514 -618.339L405.147 -627.894L882.871 403.766L862.238 413.321ZM425.78 -637.449L903.504 394.211L924.137 384.657L446.413 -647.003L425.78 -637.449ZM944.771 375.098L467.047 -656.562L487.68 -666.116L965.405 365.544L944.771 375.098ZM508.313 -675.668L986.038 355.992L1006.67 346.437L528.947 -685.223L508.313 -675.668ZM1027.3 336.883L549.58 -694.777L570.213 -704.331L1047.94 327.329L1027.3 336.883ZM590.846 -713.886L1068.57 317.774L1089.2 308.219L611.479 -723.44L590.846 -713.886Z" fill="black"/>
</g>
<defs>
<clipPath id="clip0_0_1">
<rect x="296" y="244" width="223" height="223" rx="111.5" fill="white"/>
</clipPath>
<clipPath id="clip1_0_1">
<rect width="204.114" height="204.114" fill="white" transform="translate(472.848 45.7852) rotate(9.30829)"/>
</clipPath>
<clipPath id="clip2_0_1">
<rect width="204.114" height="204.114" fill="white" transform="translate(84.8188 197.016) rotate(24.3)"/>
</clipPath>
</defs>
</svg>
