<svg width="22" height="22" viewBox="0 0 22 22" fill="none" xmlns="http://www.w3.org/2000/svg">
<path d="M10.9948 1.97583C13.927 1.97583 14.2739 1.98634 15.4299 2.03889C16.5019 2.09143 17.08 2.2701 17.4688 2.41724C17.9838 2.61692 18.3411 2.85864 18.73 3.23699C19.1188 3.62585 19.3501 3.98318 19.5497 4.49816C19.6969 4.88702 19.8755 5.46505 19.9281 6.53705C19.9806 7.69312 19.9912 8.03994 19.9912 10.9721C19.9912 13.9044 19.9806 14.2512 19.9281 15.4073C19.8755 16.4792 19.6969 17.0573 19.5497 17.4461C19.3501 17.9611 19.1083 18.3184 18.73 18.7073C18.3516 19.0857 17.9838 19.3274 17.4688 19.5271C17.08 19.6742 16.5019 19.8529 15.4299 19.9054C14.2739 19.958 13.927 19.9685 10.9948 19.9685C8.06262 19.9685 7.7158 19.958 6.55973 19.9054C5.48774 19.8529 4.9097 19.6742 4.52084 19.5271C4.00587 19.3274 3.64854 19.0857 3.25968 18.7073C2.88133 18.3184 2.6396 17.9611 2.43992 17.4461C2.29278 17.0573 2.11412 16.4792 2.06157 15.4073C2.00902 14.2512 1.99851 13.9044 1.99851 10.9721C1.99851 8.03994 2.00902 7.69312 2.06157 6.53705C2.11412 5.46505 2.29278 4.88702 2.43992 4.49816C2.6396 3.98318 2.88133 3.62585 3.25968 3.23699C3.64854 2.84813 4.00587 2.61692 4.52084 2.41724C4.9097 2.2701 5.48774 2.09143 6.55973 2.03889C7.7158 1.98634 8.06262 1.97583 10.9948 1.97583ZM10.9948 0C8.02058 0 7.64223 0.0105092 6.47565 0.0630578C5.30907 0.115606 4.51033 0.304781 3.81669 0.578034C3.09152 0.861796 2.48196 1.22964 1.87239 1.8392C1.26283 2.44877 0.884479 3.05833 0.611226 3.7835C0.337973 4.47714 0.159309 5.27588 0.10676 6.44246C0.0542113 7.60904 0.0437012 7.98739 0.0437012 10.9616C0.0437012 13.9359 0.0542113 14.3142 0.10676 15.4808C0.159309 16.6474 0.348483 17.4461 0.611226 18.1398C0.894989 18.865 1.26283 19.4745 1.87239 20.0841C2.48196 20.6936 3.09152 21.072 3.81669 21.3452C4.51033 21.6185 5.30907 21.7972 6.47565 21.8602C7.64223 21.9128 8.02058 21.9233 10.9948 21.9233C13.9691 21.9233 14.3474 21.9128 15.514 21.8602C16.6806 21.8077 17.4793 21.6185 18.173 21.3452C18.8981 21.0615 19.5077 20.6936 20.1173 20.0841C20.7268 19.4745 21.1052 18.865 21.3784 18.1398C21.6517 17.4461 21.8304 16.6474 21.8934 15.4808C21.946 14.3142 21.9565 13.9359 21.9565 10.9616C21.9565 7.98739 21.946 7.60904 21.8934 6.44246C21.8409 5.27588 21.6517 4.47714 21.3784 3.7835C21.0947 3.05833 20.7268 2.44877 20.1173 1.8392C19.5077 1.22964 18.8981 0.851287 18.173 0.578034C17.4793 0.304781 16.6806 0.126116 15.514 0.0630578C14.3474 0.0105092 13.9691 0 10.9948 0Z" fill="black"/>
<path d="M10.9948 5.32843C7.88391 5.32843 5.36157 7.85076 5.36157 10.9616C5.36157 14.0725 7.88391 16.5949 10.9948 16.5949C14.1057 16.5949 16.628 14.0725 16.628 10.9616C16.628 7.85076 14.1057 5.32843 10.9948 5.32843ZM10.9948 14.619C8.97692 14.619 7.3374 12.9795 7.3374 10.9616C7.3374 8.94377 8.97692 7.30426 10.9948 7.30426C13.0127 7.30426 14.6522 8.94377 14.6522 10.9616C14.6522 12.9795 13.0127 14.619 10.9948 14.619Z" fill="black"/>
<path d="M18.1623 5.10772C18.1623 5.83289 17.5738 6.42144 16.8486 6.42144C16.1235 6.42144 15.5349 5.83289 15.5349 5.10772C15.5349 4.38255 16.1235 3.79401 16.8486 3.79401C17.5738 3.79401 18.1623 4.38255 18.1623 5.10772Z" fill="black"/>
</svg>
