<svg width="22" height="22" viewBox="0 0 22 22" fill="none" xmlns="http://www.w3.org/2000/svg">
<g clip-path="url(#clip0_72_780)">
<path d="M10.9948 2.05255C13.927 2.05255 14.2738 2.06306 15.4299 2.11561C16.5019 2.16816 17.0799 2.34682 17.4688 2.49396C17.9837 2.69364 18.3411 2.93537 18.7299 3.31372C19.1188 3.70257 19.35 4.05991 19.5497 4.57488C19.6968 4.96374 19.8755 5.54178 19.928 6.61377C19.9806 7.76984 19.9911 8.11666 19.9911 11.0489C19.9911 13.9811 19.9806 14.3279 19.928 15.484C19.8755 16.556 19.6968 17.134 19.5497 17.5229C19.35 18.0378 19.1083 18.3952 18.7299 18.784C18.3516 19.1624 17.9837 19.4041 17.4688 19.6038C17.0799 19.7509 16.5019 19.9296 15.4299 19.9821C14.2738 20.0347 13.927 20.0452 10.9948 20.0452C8.06256 20.0452 7.71574 20.0347 6.55967 19.9821C5.48768 19.9296 4.90964 19.7509 4.52078 19.6038C4.00581 19.4041 3.64847 19.1624 3.25962 18.784C2.88127 18.3952 2.63954 18.0378 2.43986 17.5229C2.29272 17.134 2.11406 16.556 2.06151 15.484C2.00896 14.3279 1.99845 13.9811 1.99845 11.0489C1.99845 8.11666 2.00896 7.76984 2.06151 6.61377C2.11406 5.54178 2.29272 4.96374 2.43986 4.57488C2.63954 4.05991 2.88127 3.70257 3.25962 3.31372C3.64847 2.92486 4.00581 2.69364 4.52078 2.49396C4.90964 2.34682 5.48768 2.16816 6.55967 2.11561C7.71574 2.06306 8.06256 2.05255 10.9948 2.05255ZM10.9948 0.0767212C8.02052 0.0767212 7.64217 0.0872304 6.47559 0.139779C5.30901 0.192328 4.51027 0.381502 3.81663 0.654755C3.09146 0.938518 2.4819 1.30636 1.87233 1.91592C1.26277 2.52549 0.884418 3.13505 0.611165 3.86022C0.337912 4.55386 0.159248 5.3526 0.106699 6.51918C0.0541503 7.68576 0.0436401 8.06411 0.0436401 11.0384C0.0436401 14.0126 0.0541503 14.391 0.106699 15.5575C0.159248 16.7241 0.348422 17.5229 0.611165 18.2165C0.894928 18.9417 1.26277 19.5512 1.87233 20.1608C2.4819 20.7704 3.09146 21.1487 3.81663 21.422C4.51027 21.6952 5.30901 21.8739 6.47559 21.9369C7.64217 21.9895 8.02052 22 10.9948 22C13.969 22 14.3474 21.9895 15.5139 21.9369C16.6805 21.8844 17.4793 21.6952 18.1729 21.422C18.8981 21.1382 19.5076 20.7704 20.1172 20.1608C20.7268 19.5512 21.1051 18.9417 21.3784 18.2165C21.6516 17.5229 21.8303 16.7241 21.8934 15.5575C21.9459 14.391 21.9564 14.0126 21.9564 11.0384C21.9564 8.06411 21.9459 7.68576 21.8934 6.51918C21.8408 5.3526 21.6516 4.55386 21.3784 3.86022C21.0946 3.13505 20.7268 2.52549 20.1172 1.91592C19.5076 1.30636 18.8981 0.928008 18.1729 0.654755C17.4793 0.381502 16.6805 0.202837 15.5139 0.139779C14.3474 0.0872304 13.969 0.0767212 10.9948 0.0767212Z" fill="black"/>
<path d="M10.9948 5.40515C7.88391 5.40515 5.36157 7.92748 5.36157 11.0384C5.36157 14.1492 7.88391 16.6716 10.9948 16.6716C14.1057 16.6716 16.628 14.1492 16.628 11.0384C16.628 7.92748 14.1057 5.40515 10.9948 5.40515ZM10.9948 14.6957C8.97692 14.6957 7.3374 13.0562 7.3374 11.0384C7.3374 9.0205 8.97692 7.38098 10.9948 7.38098C13.0127 7.38098 14.6522 9.0205 14.6522 11.0384C14.6522 13.0562 13.0127 14.6957 10.9948 14.6957Z" fill="black"/>
<path d="M18.1624 5.18444C18.1624 5.90961 17.5739 6.49816 16.8487 6.49816C16.1235 6.49816 15.535 5.90961 15.535 5.18444C15.535 4.45927 16.1235 3.87073 16.8487 3.87073C17.5739 3.87073 18.1624 4.45927 18.1624 5.18444Z" fill="black"/>
</g>
<defs>
<clipPath id="clip0_72_780">
<rect width="21.9128" height="21.9233" fill="white" transform="translate(0.0436401 0.0767212)"/>
</clipPath>
</defs>
</svg>
