<svg xmlns="http://www.w3.org/2000/svg" width="53.3" height="53.3" style="overflow:visible;enable-background:new 0 0 53.3 53.3" xml:space="preserve">
    <path d="M26.7 0C12 0 0 12 0 26.7c0 4.8 1.3 9.5 3.7 13.6l-3.6 13 13-3.6c4.1 2.4 8.8 3.7 13.6 3.7 14.7 0 26.7-12 26.7-26.7C53.3 12 41.4 0 26.7 0zm8.7 27.3L18.9 42.2c-.1.1-.4.3-.7.2-.2 0-.3-.2-.4-.3-.1-.3 0-.5.1-.7l5.5-12-7-1.9c-.3-.1-.6-.3-.6-.6-.1-.3 0-.6.3-.8l15.7-13.6c.1-.1.4-.3.7-.2.2 0 .3.2.4.3.1.3 0 .5-.1.7L27.7 24l7.2 1.9c.3.1.6.3.6.6.2.3.1.6-.1.8zm17.9-.6z"/>
</svg>
