<svg width="1258" height="594" viewBox="0 0 1258 594" fill="none" xmlns="http://www.w3.org/2000/svg">
<rect x="814" width="26.7739" height="669.348" transform="rotate(30 814 0)" fill="white"/>
<rect x="874" width="26.7739" height="669.348" transform="rotate(30 874 0)" fill="white"/>
<rect x="934" width="26.7739" height="669.348" transform="rotate(30 934 0)" fill="white"/>
<rect x="994" width="26.7739" height="669.348" transform="rotate(30 994 0)" fill="white"/>
<rect x="1054" width="26.7739" height="669.348" transform="rotate(30 1054 0)" fill="white"/>
<rect x="1114" width="26.7739" height="669.348" transform="rotate(30 1114 0)" fill="white"/>
<rect x="1174" width="26.7739" height="669.348" transform="rotate(30 1174 0)" fill="white"/>
<rect x="1234" width="26.7739" height="669.348" transform="rotate(30 1234 0)" fill="white"/>
<rect x="334.674" width="26.7739" height="669.348" transform="rotate(30 334.674 0)" fill="white"/>
<rect x="394" width="26.7739" height="669.348" transform="rotate(30 394 0)" fill="white"/>
<rect x="454" width="26.7739" height="669.348" transform="rotate(30 454 0)" fill="white"/>
<rect x="514" width="26.7739" height="669.348" transform="rotate(30 514 0)" fill="white"/>
<rect x="574" width="26.7739" height="669.348" transform="rotate(30 574 0)" fill="white"/>
<rect x="634" width="26.7739" height="669.348" transform="rotate(30 634 0)" fill="white"/>
<rect x="694" width="26.7739" height="669.348" transform="rotate(30 694 0)" fill="white"/>
<rect x="754" width="26.7739" height="669.348" transform="rotate(30 754 0)" fill="white"/>
</svg>
