<svg width="629" height="270" fill="none" xmlns="http://www.w3.org/2000/svg">
    <path d="M405.885 0h24.597L274.597 270H250L405.885 0ZM355.885 0h24.597L224.597 270H200L355.885 0ZM305.885 0h24.597L174.597 270H150L305.885 0ZM255.885 0h24.597L124.597 270H100L255.885 0ZM205.885 0h24.597L74.597 270H50L205.885 0ZM155.885 0h24.597L24.597 270H0L155.885 0ZM503.885 0h24.597L372.597 270H348L503.885 0ZM553.885 0h24.597L422.597 270H398L553.885 0ZM603.885 0h24.597L472.597 270H448L603.885 0ZM454.885 0h24.597L323.597 270H299L454.885 0Z" fill="#fff"/>
</svg>
