<svg width="6" height="250" viewBox="0 0 6 250" fill="none" xmlns="http://www.w3.org/2000/svg">
<g clip-path="url(#clip0_330_125)">
<rect width="6" height="250" fill="#FBCECE"/>
<path fill-rule="evenodd" clip-rule="evenodd" d="M-181.841 125.312L-2.50181 280.402L0.600001 276.815L-178.739 121.725L-181.841 125.312ZM-175.637 118.14L3.70198 273.23L6.80378 269.643L-172.536 114.553L-175.637 118.14ZM9.90563 266.057L-169.434 110.967L-166.332 107.38L13.0074 262.47L9.90563 266.057ZM-163.23 103.793L16.1093 258.884L19.2111 255.297L-160.128 100.206L-163.23 103.793ZM22.3128 251.71L-157.026 96.6193L-153.925 93.0325L25.4146 248.123L22.3128 251.71ZM-150.823 89.4467L28.5165 244.537L31.6183 240.95L-147.721 85.8599L-150.823 89.4467ZM34.7201 237.362L-144.619 82.2713L-141.517 78.6845L37.8219 233.775L34.7201 237.362ZM-138.416 75.098L40.9237 230.188L44.0255 226.602L-135.314 71.5112L-138.416 75.098ZM47.1272 223.016L-132.212 67.9255L-129.11 64.3387L50.229 219.429L47.1272 223.016ZM-126.008 60.7515L53.331 215.842L56.4328 212.255L-122.907 57.1647L-126.008 60.7515ZM59.5344 208.669L-119.805 53.5782L-116.703 49.9914L62.6362 205.082L59.5344 208.669ZM-113.601 46.405L65.7382 201.495L68.84 197.908L-110.499 42.8182L-113.601 46.405ZM71.9417 194.321L-107.398 39.2302L-104.296 35.6434L75.0435 190.734L71.9417 194.321ZM-101.194 32.057L78.1453 187.147L81.2471 183.56L-98.0922 28.4702L-101.194 32.057ZM84.349 179.974L-94.9903 24.8837L-91.8885 21.2969L87.4508 176.387L84.349 179.974ZM-88.7867 17.709L90.5526 172.799L93.6544 169.212L-85.6849 14.1222L-88.7867 17.709ZM96.7563 165.627L-82.583 10.5364L-79.4812 6.94966L99.8581 162.04L96.7563 165.627ZM-76.3795 3.36389L102.96 158.454L106.062 154.867L-73.2777 -0.222895L-76.3795 3.36389ZM109.163 151.28L-70.1759 -3.81011L-67.0741 -7.39689L112.265 147.693L109.163 151.28ZM-63.9723 -10.9848L115.367 144.105L118.469 140.519L-60.8705 -14.5716L-63.9723 -10.9848ZM121.571 136.932L-57.7687 -18.1581L-54.6669 -21.7449L124.672 133.345L121.571 136.932ZM-51.565 -25.3314L127.774 129.759L130.876 126.172L-48.4632 -28.9181L-51.565 -25.3314ZM133.978 122.585L-45.3615 -32.5053L-42.2597 -36.0921L137.08 118.998L133.978 122.585ZM-39.1579 -39.6779L140.181 115.412L143.283 111.826L-36.0561 -43.2647L-39.1579 -39.6779Z" fill="white"/>
</g>
<defs>
<clipPath id="clip0_330_125">
<rect width="6" height="250" fill="white"/>
</clipPath>
</defs>
</svg>
