<?xml version="1.0" encoding="utf-8"?>
<!-- Generator: Adobe Illustrator 25.0.0, SVG Export Plug-In . SVG Version: 6.00 Build 0)  -->
<svg version="1.1" id="圖層_1" xmlns="http://www.w3.org/2000/svg" xmlns:xlink="http://www.w3.org/1999/xlink" x="0px" y="0px"
	 viewBox="0 0 2597.3 1239.1" style="enable-background:new 0 0 2597.3 1239.1;" xml:space="preserve">
<style type="text/css">
	.st0{fill:#CCCCCC;}
</style>
<polygon class="st0" points="1199,-4.9 1222.2,8.5 502.5,1238.2 479.3,1224.8 "/>
<polygon class="st0" points="1259,-4.9 1282.2,8.5 562.5,1238.2 539.3,1224.8 "/>
<polygon class="st0" points="1319,-4.9 1342.2,8.5 622.5,1238.2 599.3,1224.8 "/>
<polygon class="st0" points="1379,-4.9 1402.2,8.5 682.5,1238.2 659.3,1224.8 "/>
<polygon class="st0" points="1439,-4.9 1462.2,8.5 742.5,1238.2 719.3,1224.8 "/>
<polygon class="st0" points="1499,-4.9 1522.2,8.5 802.5,1238.2 779.3,1224.8 "/>
<polygon class="st0" points="1559,-4.9 1582.2,8.5 862.5,1238.2 839.3,1224.8 "/>
<polygon class="st0" points="1619,-4.9 1642.2,8.5 922.5,1238.2 899.3,1224.8 "/>
<polygon class="st0" points="719.7,-4.9 742.9,8.5 23.2,1238.2 0,1224.8 "/>
<polygon class="st0" points="779,-4.9 802.2,8.5 82.5,1238.2 59.3,1224.8 "/>
<polygon class="st0" points="839,-4.9 862.2,8.5 142.5,1238.2 119.3,1224.8 "/>
<polygon class="st0" points="899,-4.9 922.2,8.5 202.5,1238.2 179.3,1224.8 "/>
<polygon class="st0" points="959,-4.9 982.2,8.5 262.5,1238.2 239.3,1224.8 "/>
<polygon class="st0" points="1019,-4.9 1042.2,8.5 322.5,1238.2 299.3,1224.8 "/>
<polygon class="st0" points="1079,-4.9 1102.2,8.5 382.5,1238.2 359.3,1224.8 "/>
<polygon class="st0" points="1139,-4.9 1162.2,8.5 442.5,1238.2 419.3,1224.8 "/>
<polygon class="st0" points="2154.1,0.9 2177.3,14.2 1457.6,1243.9 1434.4,1230.5 "/>
<polygon class="st0" points="2214.1,0.9 2237.3,14.2 1517.6,1243.9 1494.4,1230.5 "/>
<polygon class="st0" points="2274.1,0.9 2297.3,14.2 1577.6,1243.9 1554.4,1230.5 "/>
<polygon class="st0" points="2334.1,0.9 2357.3,14.2 1637.6,1243.9 1614.4,1230.5 "/>
<polygon class="st0" points="2394.1,0.9 2417.3,14.2 1697.6,1243.9 1674.4,1230.5 "/>
<polygon class="st0" points="2454.1,0.9 2477.3,14.2 1757.6,1243.9 1734.4,1230.5 "/>
<polygon class="st0" points="2514.1,0.9 2537.3,14.2 1817.6,1243.9 1794.4,1230.5 "/>
<polygon class="st0" points="2574.1,0.9 2597.3,14.2 1877.6,1243.9 1854.4,1230.5 "/>
<polygon class="st0" points="1674.8,0.9 1697.9,14.2 978.3,1243.9 955.1,1230.5 "/>
<polygon class="st0" points="1734.1,0.9 1757.3,14.2 1037.6,1243.9 1014.4,1230.5 "/>
<polygon class="st0" points="1794.1,0.9 1817.3,14.2 1097.6,1243.9 1074.4,1230.5 "/>
<polygon class="st0" points="1854.1,0.9 1877.3,14.2 1157.6,1243.9 1134.4,1230.5 "/>
<polygon class="st0" points="1914.1,0.9 1937.3,14.2 1217.6,1243.9 1194.4,1230.5 "/>
<polygon class="st0" points="1974.1,0.9 1997.3,14.2 1277.6,1243.9 1254.4,1230.5 "/>
<polygon class="st0" points="2034.1,0.9 2057.3,14.2 1337.6,1243.9 1314.4,1230.5 "/>
<polygon class="st0" points="2094.1,0.9 2117.3,14.2 1397.6,1243.9 1374.4,1230.5 "/>
</svg>
