<svg xmlns="http://www.w3.org/2000/svg" viewBox="0 0 2597.3 1239.1" style="enable-background:new 0 0 2597.3 1239.1" xml:space="preserve">
    <path d="m1199-4.9 23.2 13.4-719.7 1229.7-23.2-13.4zm60 0 23.2 13.4-719.7 1229.7-23.2-13.4zm60 0 23.2 13.4-719.7 1229.7-23.2-13.4zm60 0 23.2 13.4-719.7 1229.7-23.2-13.4zm60 0 23.2 13.4-719.7 1229.7-23.2-13.4zm60 0 23.2 13.4-719.7 1229.7-23.2-13.4zm60 0 23.2 13.4-719.7 1229.7-23.2-13.4zm60 0 23.2 13.4-719.7 1229.7-23.2-13.4zm-899.3 0 23.2 13.4L23.2 1238.2 0 1224.8zm59.3 0 23.2 13.4L82.5 1238.2l-23.2-13.4zm60 0 23.2 13.4-719.7 1229.7-23.2-13.4zm60 0 23.2 13.4-719.7 1229.7-23.2-13.4zm60 0 23.2 13.4-719.7 1229.7-23.2-13.4zm60 0 23.2 13.4-719.7 1229.7-23.2-13.4zm60 0 23.2 13.4-719.7 1229.7-23.2-13.4zm60 0 23.2 13.4-719.7 1229.7-23.2-13.4zM2154.1.9l23.2 13.3-719.7 1229.7-23.2-13.4zm60 0 23.2 13.3-719.7 1229.7-23.2-13.4zm60 0 23.2 13.3-719.7 1229.7-23.2-13.4zm60 0 23.2 13.3-719.7 1229.7-23.2-13.4zm60 0 23.2 13.3-719.7 1229.7-23.2-13.4zm60 0 23.2 13.3-719.7 1229.7-23.2-13.4zm60 0 23.2 13.3-719.7 1229.7-23.2-13.4zm60 0 23.2 13.3-719.7 1229.7-23.2-13.4zm-899.3 0 23.1 13.3-719.6 1229.7-23.2-13.4zm59.3 0 23.2 13.3-719.7 1229.7-23.2-13.4zm60 0 23.2 13.3-719.7 1229.7-23.2-13.4zm60 0 23.2 13.3-719.7 1229.7-23.2-13.4zm60 0 23.2 13.3-719.7 1229.7-23.2-13.4zm60 0 23.2 13.3-719.7 1229.7-23.2-13.4zm60 0 23.2 13.3-719.7 1229.7-23.2-13.4zm60 0 23.2 13.3-719.7 1229.7-23.2-13.4z" style="fill:#ccc"/>
</svg>
