<svg width="29" height="20" fill="none" xmlns="http://www.w3.org/2000/svg">
    <mask id="a" fill="#fff">
        <path d="M9 10 18.9.1l9.899 9.9-9.9 9.9L9 10Z"/>
    </mask>
    <path d="m28.799 10 .707.707.707-.707-.707-.707L28.8 10ZM18.192.808l9.9 9.9 1.414-1.415-9.9-9.9L18.193.808Zm9.9 8.485-9.9 9.9 1.415 1.414 9.9-9.9-1.415-1.414Z" fill="#fff" mask="url(#a)"/>
    <mask id="b" fill="#fff">
        <path d="m20.627 10-9.9 9.9L.829 10l9.9-9.9 9.9 9.9Z"/>
    </mask>
    <path d="m.828 10-.707-.707-.707.707.707.707L.828 10Zm10.607 9.192-9.9-9.9-1.414 1.415 9.9 9.9 1.414-1.415Zm-9.9-8.485 9.9-9.9-1.414-1.414-9.9 9.9 1.415 1.414Z" fill="#fff" mask="url(#b)"/>
</svg>
