<svg width="102" height="759" fill="none" xmlns="http://www.w3.org/2000/svg">
    <path d="M2 22.64h5.04l1.26 11.2c.14 1.82.84 2.52 3.08 2.52h81.9V26c0-11.62-1.68-12.88-24.64-17.64V.8H100v95.06H68.64v-7.7c22.96-4.9 24.64-6.16 24.64-17.5V60.3h-81.9c-2.24 0-2.94.56-3.08 2.52l-1.26 11.2H2V22.64Zm5.04 86.205 1.26 10.08c.28 1.96.98 2.52 3.08 2.52h79.38c2.1 0 2.8-.56 3.08-2.52l1.12-10.08H100v85.82H70.32v-7.7c21.28-4.9 22.96-6.16 22.96-17.36v-24.22H56.04l.28 14.14c.14 3.22.84 3.64 4.2 4.62l9.38 2.38v7H35.88v-7l9.24-2.38c3.5-.98 4.2-1.4 4.2-4.62l.28-14.14H11.8c-2.1 0-3.08.98-3.08 3.08v21.56c0 13.02 1.82 14.42 23.52 20.02v7.7L2 196.905v-88.06h5.04ZM2 213.736h5.04l1.26 10.08c.28 1.96.98 2.52 3.08 2.52h79.38c2.1 0 2.8-.56 3.08-2.52l1.12-10.08H100v50.26c0 25.06-9.94 37.8-26.18 37.8-11.62 0-20.58-7.98-24.64-22.26l-35.14 30.52c-4.76 4.2-5.46 6.16-6.58 10.78l-.42 1.82H2v-31.64l44.94-35.14v-5.6H11.38c-2.1 0-2.8.56-3.08 2.52l-1.26 9.8H2v-48.86Zm91.28 36.54h-39.9v8.26c0 12.04 7.56 19.74 20.3 19.74 12.88 0 19.6-7.14 19.6-19.74v-8.26ZM7.04 333.392l1.26 10.08c.28 1.96.98 2.52 3.08 2.52h79.38c2.1 0 2.8-.56 3.08-2.52l1.12-10.08H100v85.82H70.32v-7.7c21.28-4.9 22.96-6.16 22.96-17.36v-24.22H56.04l.28 14.14c.14 3.22.84 3.64 4.2 4.62l9.38 2.38v7H35.88v-7l9.24-2.38c3.5-.98 4.2-1.4 4.2-4.62l.28-14.14H11.8c-2.1 0-3.08.98-3.08 3.08v21.56c0 13.02 1.82 14.42 23.52 20.02v7.7L2 421.452v-88.06h5.04ZM100 438.282v34.02l-57.4 50.541c-.98.839-.7 1.82.56 1.68l42.28-.28c5.6 0 7.56-1.4 8.4-6.02l1.12-6.44H100v33.04h-5.04l-1.12-6.58c-.84-4.48-2.8-5.88-8.4-5.88H.46v-3.92l77.42-68.321c.84-.84.56-1.68-.42-1.68l-60.9.42c-5.6 0-7.42 1.4-8.26 5.88l-1.26 6.58H2v-33.04h5.04l1.26 6.58c.84 4.62 2.66 6.02 8.26 6.02h69.72c3.64 0 4.48-.56 5.46-3.5l3.22-9.1H100ZM.18 612.171c0-30.24 19.6-54.04 50.12-54.04 30.38 0 51.52 23.24 51.52 52.64 0 20.72-9.52 29.82-9.52 32.76 0 1.4.84 2.38 6.86 8.4H67.1v-8.26c18.06-3.78 27.72-15.96 27.72-30.38 0-17.64-16.24-30.38-42.84-30.38-29.4 0-44.8 13.58-44.8 31.64 0 14.14 9.66 25.48 27.86 29.26v8.12H2.98c5.88-6.02 6.72-7 6.72-8.4 0-2.94-9.52-11.76-9.52-31.36Zm6.86 57.221 1.26 10.08c.28 1.96.98 2.52 3.08 2.52h79.38c2.1 0 2.8-.56 3.08-2.52l1.12-10.08H100v85.82H70.32v-7.7c21.28-4.9 22.96-6.16 22.96-17.36v-24.22H56.04l.28 14.14c.14 3.22.84 3.64 4.2 4.62l9.38 2.38v7H35.88v-7l9.24-2.38c3.5-.98 4.2-1.4 4.2-4.62l.28-14.14H11.8c-2.1 0-3.08.98-3.08 3.08v21.56c0 13.02 1.82 14.42 23.52 20.02v7.7L2 757.452v-88.06h5.04Z" fill="#fff" fill-opacity=".5"/>
</svg>
